<svg xmlns="http://www.w3.org/2000/svg" xmlns:xlink="http://www.w3.org/1999/xlink" viewBox="0 0 1524.11 923.05"><defs><style>.cls-1{fill:none;}.cls-2{fill:#1c3342;}.cls-3{opacity:0.35;}.cls-4{clip-path:url(#clip-path);}.cls-5{opacity:0.1;}.cls-6,.cls-7{fill:#fff;}.cls-6{opacity:0.5;}.cls-7{opacity:0.05;}.cls-8{clip-path:url(#clip-path-2);}</style><clipPath id="clip-path"><rect class="cls-1" x="310.66" y="230.42" width="500" height="503.84"/></clipPath><clipPath id="clip-path-2"><rect class="cls-1" x="810.78" y="230.09" width="496" height="503.89"/></clipPath></defs><title>Asset 3</title><g id="Layer_2" data-name="Layer 2"><g id="Objects"><rect class="cls-2" x="310.66" y="230.09" width="996.12" height="504.33"/><g class="cls-3"><g class="cls-4"><g class="cls-5"><path class="cls-6" d="M418.68,337.37,337,419.72a11,11,0,0,0,0,15.39,10.74,10.74,0,0,0,15.27,0l18.21-18.34a10.74,10.74,0,0,1,15.27,0h0a10.94,10.94,0,0,1,.6,14.72l-70.59,71.13A10.74,10.74,0,0,1,301.1,502h0a10.92,10.92,0,0,1,0-15.38L320.62,467a11,11,0,0,0,0-15.39,10.74,10.74,0,0,0-15.27,0l-9.21,9.28a10.76,10.76,0,0,1-15.27,0h0a11,11,0,0,1,0-15.39l9.21-9.28a10.94,10.94,0,0,0,0-15.38,10.74,10.74,0,0,0-15.27,0l-63.13,63.61a10.92,10.92,0,0,0,0,15.38,10.74,10.74,0,0,0,15.27,0l6.58-6.62a10.74,10.74,0,0,1,15.27,0h0a11,11,0,0,1,0,15.39l-44.75,45.09a10.74,10.74,0,0,1-15.27,0h0a10.94,10.94,0,0,1,0-15.39l3.6-3.63a10.94,10.94,0,0,0,0-15.39,10.74,10.74,0,0,0-15.27,0L114,582.85a10.94,10.94,0,0,0,0,15.39,10.74,10.74,0,0,0,15.27,0L141.43,586a10.74,10.74,0,0,1,15.27,0h0a10.94,10.94,0,0,1,0,15.39l-16.18,16.31a10.94,10.94,0,0,0,0,15.39,10.74,10.74,0,0,0,15.27,0l87.62-88.3-.32.36a10.72,10.72,0,0,1,14.92.32h0a10.91,10.91,0,0,1,.46,14.85l-12.72,12.82a11,11,0,0,0,0,15.39,10.74,10.74,0,0,0,15.27,0l33.56-33.81a10.74,10.74,0,0,1,15.27,0h0a10.93,10.93,0,0,1,.68,14.62l-7.29,7.35a10.94,10.94,0,0,0,0,15.39,10.74,10.74,0,0,0,15.27,0l63.12-63.61a10.94,10.94,0,0,0,0-15.39,10.74,10.74,0,0,0-15.27,0l-9.93,10a10.73,10.73,0,0,1-14.51-.7h0a10.94,10.94,0,0,1,0-15.38L389,459.53a10.74,10.74,0,0,1,15.27,0h0a11,11,0,0,1,.69,14.63l-7.3,7.35a11,11,0,0,0,0,15.39,10.74,10.74,0,0,0,15.27,0l63.13-63.61a11,11,0,0,0,0-15.39,10.74,10.74,0,0,0-15.27,0l-9.93,10a10.74,10.74,0,0,1-14.51-.69h0a10.94,10.94,0,0,1,0-15.39l12.84-12.93a11,11,0,0,0,0-15.39,10.74,10.74,0,0,0-15.27,0l-1.54,1.55a10.74,10.74,0,0,1-14.61-.61h0a10.94,10.94,0,0,1,0-15.38L434,352.76a10.94,10.94,0,0,0,0-15.39A10.74,10.74,0,0,0,418.68,337.37Z"/><path class="cls-6" d="M352,372.91l36.53-36.81a9.55,9.55,0,0,0,0-13.45h0a9.37,9.37,0,0,0-13.34,0l-36.54,36.81a9.57,9.57,0,0,0,0,13.45h0A9.38,9.38,0,0,0,352,372.91Z"/></g><g class="cls-5"><path class="cls-6" d="M615,472.61l86.64-87.3a11.61,11.61,0,0,0,0-16.32,11.38,11.38,0,0,0-16.18,0l-19.3,19.45a11.4,11.4,0,0,1-16.19,0h0a11.59,11.59,0,0,1-.63-15.61l74.83-75.4a11.37,11.37,0,0,1,15.48.63h0a11.61,11.61,0,0,1,0,16.32L719,335.23a11.59,11.59,0,0,0,0,16.31,11.4,11.4,0,0,0,16.19,0l9.76-9.83a11.38,11.38,0,0,1,16.19,0h0a11.59,11.59,0,0,1,0,16.31l-9.76,9.83a11.61,11.61,0,0,0,0,16.32,11.4,11.4,0,0,0,16.19,0l66.92-67.44a11.59,11.59,0,0,0,0-16.31,11.38,11.38,0,0,0-16.19,0l-7,7a11.38,11.38,0,0,1-16.19,0h0a11.59,11.59,0,0,1,0-16.31l47.45-47.81a11.38,11.38,0,0,1,16.19,0h0a11.59,11.59,0,0,1,0,16.31l-3.83,3.86a11.59,11.59,0,0,0,0,16.31,11.4,11.4,0,0,0,16.19,0L938,212.36a11.59,11.59,0,0,0,0-16.31,11.37,11.37,0,0,0-16.18,0l-12.91,13a11.38,11.38,0,0,1-16.19,0h0a11.59,11.59,0,0,1,0-16.31l17.16-17.29a11.61,11.61,0,0,0,0-16.32,11.4,11.4,0,0,0-16.19,0l-92.89,93.61c.12-.12.22-.25.33-.37a11.37,11.37,0,0,1-15.81-.34h0a11.59,11.59,0,0,1-.49-15.75l13.48-13.59a11.59,11.59,0,0,0,0-16.31,11.38,11.38,0,0,0-16.19,0l-35.57,35.84a11.38,11.38,0,0,1-16.19,0h0a11.6,11.6,0,0,1-.73-15.5l7.74-7.8a11.59,11.59,0,0,0,0-16.31,11.38,11.38,0,0,0-16.19,0l-66.92,67.44a11.59,11.59,0,0,0,0,16.31,11.4,11.4,0,0,0,16.19,0L681,275.75a11.39,11.39,0,0,1,15.39.74h0a11.59,11.59,0,0,1,0,16.31l-49.92,50.3a11.4,11.4,0,0,1-16.19,0h0a11.59,11.59,0,0,1-.72-15.5l7.73-7.8a11.58,11.58,0,0,0,0-16.31,11.37,11.37,0,0,0-16.18,0l-66.93,67.43a11.61,11.61,0,0,0,0,16.32,11.4,11.4,0,0,0,16.19,0l10.53-10.61a11.37,11.37,0,0,1,15.38.74h0a11.59,11.59,0,0,1,0,16.31l-13.61,13.71a11.61,11.61,0,0,0,0,16.32,11.4,11.4,0,0,0,16.19,0l1.63-1.64a11.36,11.36,0,0,1,15.48.64h0A11.59,11.59,0,0,1,616,439L598.8,456.3a11.59,11.59,0,0,0,0,16.31A11.38,11.38,0,0,0,615,472.61Z"/><path class="cls-6" d="M725.18,398.32l-38.74,39a10.15,10.15,0,0,0,0,14.26h0a10,10,0,0,0,14.15,0l38.74-39a10.15,10.15,0,0,0,0-14.26h0A10,10,0,0,0,725.18,398.32Z"/></g><g class="cls-5"><path class="cls-6" d="M64.18,532.92l86.64-87.31a11.59,11.59,0,0,0,0-16.31,11.38,11.38,0,0,0-16.19,0l-19.29,19.45a11.4,11.4,0,0,1-16.19,0h0a11.6,11.6,0,0,1-.64-15.61l74.84-75.41a11.37,11.37,0,0,1,15.48.64h0a11.59,11.59,0,0,1,0,16.31l-20.69,20.85a11.61,11.61,0,0,0,0,16.32,11.4,11.4,0,0,0,16.19,0l9.76-9.84a11.4,11.4,0,0,1,16.19,0h0a11.61,11.61,0,0,1,0,16.32l-9.76,9.83a11.59,11.59,0,0,0,0,16.31,11.38,11.38,0,0,0,16.19,0L283.63,377a11.61,11.61,0,0,0,0-16.32,11.4,11.4,0,0,0-16.19,0l-7,7a11.4,11.4,0,0,1-16.19,0h0a11.61,11.61,0,0,1,0-16.32l47.45-47.8a11.38,11.38,0,0,1,16.19,0h0a11.59,11.59,0,0,1,0,16.31l-3.83,3.85a11.61,11.61,0,0,0,0,16.32,11.4,11.4,0,0,0,16.19,0l66.92-67.44a11.59,11.59,0,0,0,0-16.31,11.38,11.38,0,0,0-16.19,0l-12.9,13a11.4,11.4,0,0,1-16.19,0h0a11.59,11.59,0,0,1,0-16.31l17.16-17.29a11.61,11.61,0,0,0,0-16.32,11.4,11.4,0,0,0-16.19,0L250,313.05c.12-.12.22-.25.33-.37a11.37,11.37,0,0,1-15.81-.35h0a11.59,11.59,0,0,1-.49-15.75L247.51,283a11.61,11.61,0,0,0,0-16.32,11.4,11.4,0,0,0-16.19,0l-35.57,35.85a11.4,11.4,0,0,1-16.19,0h0a11.6,11.6,0,0,1-.73-15.5l7.74-7.8a11.59,11.59,0,0,0,0-16.31,11.38,11.38,0,0,0-16.19,0l-66.92,67.43a11.61,11.61,0,0,0,0,16.32,11.4,11.4,0,0,0,16.19,0l10.52-10.61a11.39,11.39,0,0,1,15.39.74h0a11.59,11.59,0,0,1,0,16.31l-49.92,50.3a11.4,11.4,0,0,1-16.19,0h0a11.6,11.6,0,0,1-.72-15.51l7.73-7.79a11.61,11.61,0,0,0,0-16.32,11.38,11.38,0,0,0-16.18,0L3.35,431.23a11.59,11.59,0,0,0,0,16.31,11.38,11.38,0,0,0,16.19,0l10.53-10.6a11.38,11.38,0,0,1,15.38.73h0a11.59,11.59,0,0,1,0,16.31L31.84,467.7a11.59,11.59,0,0,0,0,16.31A11.38,11.38,0,0,0,48,484l1.62-1.64a11.39,11.39,0,0,1,15.49.64h0a11.59,11.59,0,0,1,0,16.31L48,516.61a11.59,11.59,0,0,0,0,16.31A11.4,11.4,0,0,0,64.18,532.92Z"/><path class="cls-6" d="M174.37,458.62l-38.74,39a10.12,10.12,0,0,0,0,14.25h0a10,10,0,0,0,14.15,0l38.74-39a10.15,10.15,0,0,0,0-14.26h0A10,10,0,0,0,174.37,458.62Z"/></g><g class="cls-5"><path class="cls-6" d="M473.81,317.21l86.64-87.31a11.59,11.59,0,0,0,0-16.31,11.38,11.38,0,0,0-16.19,0L525,233a11.39,11.39,0,0,1-16.19,0h0a11.59,11.59,0,0,1-.64-15.6L583,142a11.37,11.37,0,0,1,15.49.64h0a11.59,11.59,0,0,1,0,16.31l-20.69,20.85a11.61,11.61,0,0,0,0,16.32,11.4,11.4,0,0,0,16.19,0l9.76-9.84a11.4,11.4,0,0,1,16.19,0h0a11.61,11.61,0,0,1,0,16.32l-9.76,9.83a11.59,11.59,0,0,0,0,16.31,11.38,11.38,0,0,0,16.19,0l66.92-67.43a11.61,11.61,0,0,0,0-16.32,11.4,11.4,0,0,0-16.19,0l-7,7a11.4,11.4,0,0,1-16.19,0h0a11.61,11.61,0,0,1,0-16.32l47.45-47.8a11.37,11.37,0,0,1,16.18,0h0a11.59,11.59,0,0,1,0,16.31l-3.82,3.85a11.59,11.59,0,0,0,0,16.31,11.38,11.38,0,0,0,16.19,0L796.83,57a11.61,11.61,0,0,0,0-16.32,11.4,11.4,0,0,0-16.19,0l-12.9,13a11.4,11.4,0,0,1-16.19,0h0a11.59,11.59,0,0,1,0-16.31L768.71,20a11.59,11.59,0,0,0,0-16.31,11.4,11.4,0,0,0-16.19,0l-92.9,93.61c.12-.12.23-.25.34-.38a11.36,11.36,0,0,1-15.81-.34h0a11.57,11.57,0,0,1-.49-15.75l13.48-13.58a11.61,11.61,0,0,0,0-16.32A11.4,11.4,0,0,0,641,51L605.38,86.82a11.4,11.4,0,0,1-16.19,0h0a11.6,11.6,0,0,1-.73-15.5l7.74-7.8a11.59,11.59,0,0,0,0-16.31,11.38,11.38,0,0,0-16.19,0l-66.92,67.43a11.61,11.61,0,0,0,0,16.32,11.4,11.4,0,0,0,16.19,0l10.52-10.61a11.4,11.4,0,0,1,15.39.73h0a11.61,11.61,0,0,1,0,16.32l-49.92,50.3a11.39,11.39,0,0,1-16.19,0h0a11.6,11.6,0,0,1-.73-15.5l7.74-7.79a11.61,11.61,0,0,0,0-16.32,11.4,11.4,0,0,0-16.19,0L413,215.52a11.59,11.59,0,0,0,0,16.31,11.38,11.38,0,0,0,16.19,0l10.53-10.6a11.38,11.38,0,0,1,15.38.73h0a11.59,11.59,0,0,1,0,16.31L441.47,252a11.59,11.59,0,0,0,0,16.31,11.38,11.38,0,0,0,16.19,0l1.62-1.64a11.39,11.39,0,0,1,15.49.64h0a11.59,11.59,0,0,1,0,16.31L457.62,300.9a11.59,11.59,0,0,0,0,16.31A11.4,11.4,0,0,0,473.81,317.21Z"/><path class="cls-6" d="M575.6,272.86l-38.74,39a10.14,10.14,0,0,0,0,14.25h0a10,10,0,0,0,14.15,0l38.74-39a10.15,10.15,0,0,0,0-14.26h0A10,10,0,0,0,575.6,272.86Z"/></g><g class="cls-5"><path class="cls-6" d="M618.5,621.08l-79.56,80.16a10.44,10.44,0,0,1-14.86,0,10.66,10.66,0,0,1,0-15l17.72-17.85a10.66,10.66,0,0,0,0-15h0a10.45,10.45,0,0,0-14.22-.59l-68.71,69.24a10.65,10.65,0,0,0,.58,14.33h0a10.45,10.45,0,0,0,14.87,0l19-19.14a10.45,10.45,0,0,1,14.87,0,10.66,10.66,0,0,1,0,15l-9,9a10.64,10.64,0,0,0,0,15h0a10.44,10.44,0,0,0,14.86,0l9-9a10.47,10.47,0,0,1,14.87,0,10.66,10.66,0,0,1,0,15l-61.45,61.92a10.44,10.44,0,0,1-14.86,0,10.64,10.64,0,0,1,0-15l6.4-6.45a10.66,10.66,0,0,0,0-15h0a10.47,10.47,0,0,0-14.87,0l-43.56,43.9a10.66,10.66,0,0,0,0,15h0a10.47,10.47,0,0,0,14.87,0l3.51-3.54a10.44,10.44,0,0,1,14.86,0,10.66,10.66,0,0,1,0,15L381.36,920a10.46,10.46,0,0,1-14.86,0,10.66,10.66,0,0,1,0-15L378.35,893a10.66,10.66,0,0,0,0-15h0a10.45,10.45,0,0,0-14.87,0l-15.75,15.88a10.46,10.46,0,0,1-14.86,0,10.64,10.64,0,0,1,0-15l85.29-86-.34.31a10.64,10.64,0,0,0-.31-14.63h0a10.44,10.44,0,0,0-14.35-.46L390.77,790.7a10.44,10.44,0,0,1-14.86,0,10.66,10.66,0,0,1,0-15l32.66-32.91a10.64,10.64,0,0,0,0-15h0a10.44,10.44,0,0,0-14.12-.67l-7.11,7.16a10.46,10.46,0,0,1-14.86,0,10.64,10.64,0,0,1,0-15l61.44-61.92a10.45,10.45,0,0,1,14.87,0,10.66,10.66,0,0,1,0,15l-9.67,9.74a10.66,10.66,0,0,0,.67,14.23h0a10.47,10.47,0,0,0,14.87,0l45.83-46.18a10.66,10.66,0,0,0,0-15h0a10.46,10.46,0,0,0-14.13-.68l-7.1,7.16a10.45,10.45,0,0,1-14.87,0,10.65,10.65,0,0,1,0-15l61.45-61.92a10.44,10.44,0,0,1,14.86,0,10.64,10.64,0,0,1,0,15L531,589.51a10.65,10.65,0,0,0,.67,14.24h0a10.46,10.46,0,0,0,14.86,0l12.5-12.6a10.46,10.46,0,0,1,14.86,0,10.64,10.64,0,0,1,0,15l-1.49,1.51A10.64,10.64,0,0,0,573,622h0a10.47,10.47,0,0,0,14.87,0l15.74-15.87a10.46,10.46,0,0,1,14.87,0A10.66,10.66,0,0,1,618.5,621.08Z"/><path class="cls-6" d="M550.8,723l35.56-35.83a9.14,9.14,0,0,1,13,0h0a9.32,9.32,0,0,1,0,13.09l-35.57,35.84a9.14,9.14,0,0,1-13,0h0A9.31,9.31,0,0,1,550.8,723Z"/></g><g class="cls-5"><path class="cls-6" d="M1025.94,350.29l-98.16,98.92a12.9,12.9,0,0,1-18.34,0,13.13,13.13,0,0,1,0-18.48l21.86-22a13.14,13.14,0,0,0,0-18.48h0a12.9,12.9,0,0,0-17.55-.72L829,474.92a13.14,13.14,0,0,0,.72,17.68h0a12.9,12.9,0,0,0,18.34,0L871.47,469a12.9,12.9,0,0,1,18.34,0,13.14,13.14,0,0,1,0,18.49l-11,11.14a13.13,13.13,0,0,0,0,18.48h0a12.9,12.9,0,0,0,18.34,0L908.16,506a12.89,12.89,0,0,1,18.34,0,13.15,13.15,0,0,1,0,18.48l-75.82,76.4a12.9,12.9,0,0,1-18.35,0,13.15,13.15,0,0,1,0-18.48l7.9-8a13.13,13.13,0,0,0,0-18.48h0a12.9,12.9,0,0,0-18.34,0l-53.75,54.17a13.13,13.13,0,0,0,0,18.48h0a12.9,12.9,0,0,0,18.34,0l4.33-4.37a12.9,12.9,0,0,1,18.34,0,13.14,13.14,0,0,1,0,18.49l-75.82,76.4a12.9,12.9,0,0,1-18.34,0,13.15,13.15,0,0,1,0-18.48l14.62-14.74a13.13,13.13,0,0,0,0-18.48h0a12.9,12.9,0,0,0-18.34,0L691.83,687a12.9,12.9,0,0,1-18.34,0,13.13,13.13,0,0,1,0-18.48L778.74,562.43c-.14.14-.29.26-.43.39a13.13,13.13,0,0,0-.38-18.06h0a12.88,12.88,0,0,0-17.71-.56L745,559.6a12.92,12.92,0,0,1-18.35,0,13.16,13.16,0,0,1,0-18.49l40.31-40.61a13.15,13.15,0,0,0,0-18.48h0a12.9,12.9,0,0,0-17.43-.83L740.71,490a12.89,12.89,0,0,1-18.34,0,13.13,13.13,0,0,1,0-18.48l75.82-76.4a12.89,12.89,0,0,1,18.34,0,13.15,13.15,0,0,1,0,18.48l-11.92,12a13.15,13.15,0,0,0,.82,17.57h0a12.9,12.9,0,0,0,18.34,0l56.55-57a13.13,13.13,0,0,0,0-18.48h0a12.88,12.88,0,0,0-17.42-.83l-8.77,8.83a12.89,12.89,0,0,1-18.34,0,13.13,13.13,0,0,1,0-18.48l75.82-76.4a12.89,12.89,0,0,1,18.34,0,13.15,13.15,0,0,1,0,18.48l-11.93,12a13.16,13.16,0,0,0,.83,17.57h0a12.9,12.9,0,0,0,18.34,0l15.42-15.54a12.89,12.89,0,0,1,18.34,0,13.13,13.13,0,0,1,0,18.48l-1.84,1.86a13.13,13.13,0,0,0,.72,17.68h0a12.9,12.9,0,0,0,18.34,0l19.43-19.58a12.9,12.9,0,0,1,18.34,0A13.15,13.15,0,0,1,1025.94,350.29Z"/><path class="cls-6" d="M942.41,476.09l43.88-44.22a11.27,11.27,0,0,1,16,0h0a11.47,11.47,0,0,1,0,16.15l-43.88,44.22a11.27,11.27,0,0,1-16,0h0A11.47,11.47,0,0,1,942.41,476.09Z"/></g><path class="cls-7" d="M668.6,737.57l-81.73,82.36a17.73,17.73,0,0,1-25.22,0h0a18.07,18.07,0,0,1,0-25.41l81.74-82.36a17.72,17.72,0,0,1,25.21,0h0A18.05,18.05,0,0,1,668.6,737.57Z"/><path class="cls-7" d="M848.6,705.79l-81.73,82.36a17.73,17.73,0,0,1-25.22,0h0a18.07,18.07,0,0,1,0-25.41l81.74-82.36a17.72,17.72,0,0,1,25.21,0h0A18.05,18.05,0,0,1,848.6,705.79Z"/><path class="cls-7" d="M687.34,607.08l-40.87,41.18a8.87,8.87,0,0,1-12.61,0h0a9,9,0,0,1,0-12.7l40.87-41.18a8.87,8.87,0,0,1,12.61,0h0A9,9,0,0,1,687.34,607.08Z"/><path class="cls-7" d="M348.77,636.91,267,719.28a17.75,17.75,0,0,1-25.22,0h0a18.08,18.08,0,0,1,0-25.42l81.74-82.36a17.74,17.74,0,0,1,25.21,0h0A18.05,18.05,0,0,1,348.77,636.91Z"/><path class="cls-7" d="M360.52,687.82l-89.87,90.56a12,12,0,0,1-17.08,0h0a12.25,12.25,0,0,1,0-17.21l89.88-90.56a12,12,0,0,1,17.07,0h0A12.23,12.23,0,0,1,360.52,687.82Z"/></g></g><g class="cls-3"><g class="cls-8"><g class="cls-5"><path class="cls-6" d="M917.93,337.05l-81.07,82.36a11,11,0,0,0,0,15.38,10.59,10.59,0,0,0,15.15,0l18.06-18.34a10.59,10.59,0,0,1,15.15,0h0a11,11,0,0,1,.59,14.72l-70,71.14a10.58,10.58,0,0,1-14.49-.61h0a11,11,0,0,1,0-15.38l19.36-19.67a11,11,0,0,0,0-15.39,10.59,10.59,0,0,0-15.15,0l-9.13,9.27a10.59,10.59,0,0,1-15.15,0h0a11,11,0,0,1,0-15.39l9.13-9.27a11,11,0,0,0,0-15.39,10.59,10.59,0,0,0-15.15,0L712.59,484.1a11,11,0,0,0,0,15.39,10.59,10.59,0,0,0,15.15,0l6.52-6.63a10.59,10.59,0,0,1,15.15,0h0a11,11,0,0,1,0,15.39L705,553.35a10.59,10.59,0,0,1-15.15,0h0a11,11,0,0,1,0-15.39l3.58-3.64a11,11,0,0,0,0-15.39,10.61,10.61,0,0,0-15.15,0l-62.62,63.62a11,11,0,0,0,0,15.39,10.59,10.59,0,0,0,15.15,0l12.07-12.27a10.59,10.59,0,0,1,15.15,0h0a11,11,0,0,1,0,15.39L642,617.37a11,11,0,0,0,0,15.39,10.59,10.59,0,0,0,15.15,0l86.93-88.3c-.12.11-.21.23-.32.35a10.59,10.59,0,0,1,14.8.32h0A11,11,0,0,1,759,560l-12.62,12.82a11,11,0,0,0,0,15.39,10.59,10.59,0,0,0,15.15,0l33.29-33.82a10.58,10.58,0,0,1,15.14,0h0a11,11,0,0,1,.68,14.63l-7.24,7.35a11,11,0,0,0,0,15.39,10.59,10.59,0,0,0,15.15,0l62.62-63.61a11,11,0,0,0,0-15.39,10.59,10.59,0,0,0-15.15,0l-9.84,10a10.6,10.6,0,0,1-14.4-.69h0a11,11,0,0,1,0-15.39l46.71-47.45a10.59,10.59,0,0,1,15.15,0h0a11,11,0,0,1,.68,14.62l-7.24,7.36a11,11,0,0,0,0,15.39,10.58,10.58,0,0,0,15.14,0L974.85,433a11,11,0,0,0,0-15.39,10.6,10.6,0,0,0-15.14,0l-9.85,10a10.6,10.6,0,0,1-14.4-.69h0a11,11,0,0,1,0-15.39l12.74-12.94a11,11,0,0,0,0-15.39,10.59,10.59,0,0,0-15.15,0l-1.52,1.55a10.59,10.59,0,0,1-14.49-.6h0a11,11,0,0,1,0-15.38l16-16.31a11,11,0,0,0,0-15.38A10.59,10.59,0,0,0,917.93,337.05Z"/><path class="cls-6" d="M851.77,372.59,888,335.77a9.61,9.61,0,0,0,0-13.45h0a9.27,9.27,0,0,0-13.24,0l-36.24,36.82a9.61,9.61,0,0,0,0,13.45h0A9.25,9.25,0,0,0,851.77,372.59Z"/></g><g class="cls-5"><path class="cls-6" d="M1112.68,472.3l86-87.31a11.68,11.68,0,0,0,0-16.32,11.24,11.24,0,0,0-16.06,0l-19.15,19.45a11.22,11.22,0,0,1-16.05,0h0a11.65,11.65,0,0,1-.63-15.61L1221,297.1a11.21,11.21,0,0,1,15.36.64h0a11.65,11.65,0,0,1,0,16.31l-20.52,20.85a11.66,11.66,0,0,0,0,16.32,11.24,11.24,0,0,0,16.06,0l9.68-9.84a11.24,11.24,0,0,1,16.06,0h0a11.68,11.68,0,0,1,0,16.32l-9.68,9.83a11.66,11.66,0,0,0,0,16.32,11.24,11.24,0,0,0,16.06,0l66.39-67.45a11.67,11.67,0,0,0,0-16.31,11.22,11.22,0,0,0-16.06,0l-6.92,7a11.24,11.24,0,0,1-16.06,0h0a11.68,11.68,0,0,1,0-16.32L1338.41,243a11.21,11.21,0,0,1,16,0h0a11.65,11.65,0,0,1,0,16.31l-3.79,3.86a11.67,11.67,0,0,0,0,16.31,11.22,11.22,0,0,0,16.06,0L1433.12,212a11.68,11.68,0,0,0,0-16.32,11.24,11.24,0,0,0-16.06,0l-12.8,13a11.24,11.24,0,0,1-16.06,0h0a11.66,11.66,0,0,1,0-16.32l17-17.29a11.67,11.67,0,0,0,0-16.31,11.22,11.22,0,0,0-16.06,0L1297,252.41c.12-.12.22-.25.33-.37a11.22,11.22,0,0,1-15.69-.34h0a11.66,11.66,0,0,1-.48-15.75l13.37-13.59a11.66,11.66,0,0,0,0-16.32,11.24,11.24,0,0,0-16.06,0l-35.28,35.85a11.22,11.22,0,0,1-16.06,0h0a11.67,11.67,0,0,1-.73-15.5l7.68-7.8a11.66,11.66,0,0,0,0-16.32,11.24,11.24,0,0,0-16.06,0l-66.39,67.45a11.67,11.67,0,0,0,0,16.31,11.22,11.22,0,0,0,16.06,0l10.44-10.6a11.22,11.22,0,0,1,15.26.73h0a11.65,11.65,0,0,1,0,16.31l-49.51,50.31a11.24,11.24,0,0,1-16.06,0h0a11.67,11.67,0,0,1-.72-15.51l7.67-7.8a11.65,11.65,0,0,0,0-16.31,11.22,11.22,0,0,0-16.06,0l-66.38,67.44a11.66,11.66,0,0,0,0,16.32,11.24,11.24,0,0,0,16.06,0l10.44-10.61a11.22,11.22,0,0,1,15.26.74h0a11.67,11.67,0,0,1,0,16.31l-13.51,13.72a11.67,11.67,0,0,0,0,16.31,11.22,11.22,0,0,0,16.06,0l1.62-1.64a11.21,11.21,0,0,1,15.36.64h0a11.65,11.65,0,0,1,0,16.31l-17,17.29a11.67,11.67,0,0,0,0,16.31A11.22,11.22,0,0,0,1112.68,472.3Z"/><path class="cls-6" d="M1222,398l-38.42,39a10.19,10.19,0,0,0,0,14.26h0a9.82,9.82,0,0,0,14,0l38.42-39a10.19,10.19,0,0,0,0-14.26h0A9.82,9.82,0,0,0,1222,398Z"/></g><g class="cls-5"><path class="cls-6" d="M566.27,532.61l86-87.31a11.68,11.68,0,0,0,0-16.32,11.24,11.24,0,0,0-16.06,0L617,448.43a11.22,11.22,0,0,1-16.06,0h0a11.67,11.67,0,0,1-.63-15.61l74.23-75.41a11.22,11.22,0,0,1,15.37.64h0a11.67,11.67,0,0,1,0,16.31L669.4,395.21a11.68,11.68,0,0,0,0,16.32,11.24,11.24,0,0,0,16.06,0l9.68-9.83a11.22,11.22,0,0,1,16.06,0h0a11.67,11.67,0,0,1,0,16.31l-9.68,9.83a11.68,11.68,0,0,0,0,16.32,11.24,11.24,0,0,0,16.06,0L784,376.72a11.68,11.68,0,0,0,0-16.32,11.24,11.24,0,0,0-16.06,0l-6.92,7a11.24,11.24,0,0,1-16.06,0h0a11.68,11.68,0,0,1,0-16.32L792,303.3a11.22,11.22,0,0,1,16.06,0h0a11.67,11.67,0,0,1,0,16.31l-3.8,3.86a11.67,11.67,0,0,0,0,16.31,11.22,11.22,0,0,0,16.06,0l66.39-67.44a11.66,11.66,0,0,0,0-16.31,11.22,11.22,0,0,0-16.06,0l-12.8,13a11.22,11.22,0,0,1-16.06,0h0a11.67,11.67,0,0,1,0-16.31l17-17.3a11.65,11.65,0,0,0,0-16.31,11.22,11.22,0,0,0-16.06,0L750.6,312.73l.33-.38a11.21,11.21,0,0,1-15.68-.34h0a11.65,11.65,0,0,1-.49-15.75l13.37-13.59a11.66,11.66,0,0,0,0-16.32,11.24,11.24,0,0,0-16.06,0L696.79,302.2a11.22,11.22,0,0,1-16.06,0h0a11.66,11.66,0,0,1-.72-15.5l7.67-7.8a11.65,11.65,0,0,0,0-16.31,11.22,11.22,0,0,0-16.06,0L605.24,330a11.65,11.65,0,0,0,0,16.31,11.21,11.21,0,0,0,16,0l10.44-10.6a11.23,11.23,0,0,1,15.26.73h0a11.67,11.67,0,0,1,0,16.32l-49.52,50.3a11.24,11.24,0,0,1-16.06,0h0a11.66,11.66,0,0,1-.72-15.5l7.67-7.8a11.66,11.66,0,0,0,0-16.32,11.23,11.23,0,0,0-16,0l-66.39,67.44a11.66,11.66,0,0,0,0,16.32,11.24,11.24,0,0,0,16.06,0l10.44-10.61a11.22,11.22,0,0,1,15.26.74h0a11.67,11.67,0,0,1,0,16.31l-13.5,13.72a11.65,11.65,0,0,0,0,16.31,11.22,11.22,0,0,0,16.06,0l1.61-1.64a11.22,11.22,0,0,1,15.36.64h0a11.66,11.66,0,0,1,0,16.32l-17,17.28a11.67,11.67,0,0,0,0,16.31A11.22,11.22,0,0,0,566.27,532.61Z"/><path class="cls-6" d="M675.57,458.31l-38.42,39a10.19,10.19,0,0,0,0,14.26h0a9.83,9.83,0,0,0,14,0l38.42-39a10.19,10.19,0,0,0,0-14.26h0A9.82,9.82,0,0,0,675.57,458.31Z"/></g><g class="cls-5"><path class="cls-6" d="M972.63,316.88l85.94-87.31a11.66,11.66,0,0,0,0-16.32,11.23,11.23,0,0,0-16,0l-19.15,19.45a11.22,11.22,0,0,1-16.06,0h0a11.68,11.68,0,0,1-.63-15.61l74.24-75.41a11.21,11.21,0,0,1,15.36.64h0a11.65,11.65,0,0,1,0,16.31l-20.52,20.86a11.65,11.65,0,0,0,0,16.31,11.22,11.22,0,0,0,16.06,0l9.67-9.83a11.22,11.22,0,0,1,16.06,0h0a11.65,11.65,0,0,1,0,16.31l-9.67,9.83a11.66,11.66,0,0,0,0,16.32,11.23,11.23,0,0,0,16,0L1190.32,161a11.66,11.66,0,0,0,0-16.32,11.24,11.24,0,0,0-16.06,0l-6.91,7a11.24,11.24,0,0,1-16.06,0h0a11.66,11.66,0,0,1,0-16.32l47.06-47.81a11.24,11.24,0,0,1,16.06,0h0a11.66,11.66,0,0,1,0,16.32l-3.79,3.85a11.65,11.65,0,0,0,0,16.31,11.22,11.22,0,0,0,16.06,0l66.39-67.44a11.67,11.67,0,0,0,0-16.31,11.22,11.22,0,0,0-16.06,0l-12.81,13a11.22,11.22,0,0,1-16.06,0h0a11.67,11.67,0,0,1,0-16.31l17-17.3a11.67,11.67,0,0,0,0-16.31,11.22,11.22,0,0,0-16.06,0L1157,97c.12-.12.23-.25.34-.38a11.22,11.22,0,0,1-15.69-.34h0a11.65,11.65,0,0,1-.49-15.75l13.38-13.59a11.68,11.68,0,0,0,0-16.32,11.24,11.24,0,0,0-16.06,0l-35.29,35.85a11.22,11.22,0,0,1-16.06,0h0a11.68,11.68,0,0,1-.72-15.5l7.68-7.8a11.67,11.67,0,0,0,0-16.31,11.22,11.22,0,0,0-16.06,0l-66.39,67.44a11.67,11.67,0,0,0,0,16.31,11.22,11.22,0,0,0,16.06,0l10.44-10.6a11.23,11.23,0,0,1,15.26.73h0a11.68,11.68,0,0,1,0,16.32l-49.52,50.3a11.23,11.23,0,0,1-16.05,0h0a11.67,11.67,0,0,1-.73-15.5l7.68-7.8a11.68,11.68,0,0,0,0-16.32,11.24,11.24,0,0,0-16.06,0l-66.39,67.45a11.67,11.67,0,0,0,0,16.31,11.22,11.22,0,0,0,16.06,0l10.44-10.61a11.22,11.22,0,0,1,15.26.74h0a11.65,11.65,0,0,1,0,16.31l-13.5,13.72a11.67,11.67,0,0,0,0,16.31,11.22,11.22,0,0,0,16.06,0l1.61-1.64a11.23,11.23,0,0,1,15.37.64h0a11.68,11.68,0,0,1,0,16.32l-17,17.28a11.65,11.65,0,0,0,0,16.31A11.22,11.22,0,0,0,972.63,316.88Z"/><path class="cls-6" d="M1073.6,272.54l-38.43,39a10.21,10.21,0,0,0,0,14.26h0a9.82,9.82,0,0,0,14,0l38.42-39a10.19,10.19,0,0,0,0-14.26h0A9.8,9.8,0,0,0,1073.6,272.54Z"/></g><g class="cls-5"><path class="cls-6" d="M1116.15,620.78,1037.24,701a10.31,10.31,0,0,1-14.75,0,10.72,10.72,0,0,1,0-15l17.58-17.86a10.72,10.72,0,0,0,0-15h0a10.32,10.32,0,0,0-14.11-.58l-68.15,69.24a10.71,10.71,0,0,0,.57,14.33h0a10.31,10.31,0,0,0,14.75,0L992,717a10.31,10.31,0,0,1,14.75,0,10.72,10.72,0,0,1,0,15l-8.89,9a10.72,10.72,0,0,0,0,15h0a10.31,10.31,0,0,0,14.75,0l8.88-9a10.31,10.31,0,0,1,14.75,0,10.72,10.72,0,0,1,0,15l-61,61.92a10.3,10.3,0,0,1-14.74,0,10.72,10.72,0,0,1,0-15l6.35-6.45a10.72,10.72,0,0,0,0-15h0a10.31,10.31,0,0,0-14.75,0l-43.21,43.9a10.72,10.72,0,0,0,0,15h0a10.31,10.31,0,0,0,14.75,0l3.48-3.54a10.3,10.3,0,0,1,14.74,0,10.72,10.72,0,0,1,0,15l-61,61.92a10.31,10.31,0,0,1-14.75,0,10.7,10.7,0,0,1,0-15l11.76-12a10.72,10.72,0,0,0,0-15h0a10.33,10.33,0,0,0-14.75,0l-15.63,15.88a10.3,10.3,0,0,1-14.74,0,10.72,10.72,0,0,1,0-15l84.61-85.95-.34.31a10.72,10.72,0,0,0-.31-14.64h0a10.28,10.28,0,0,0-14.23-.45l-12.29,12.48a10.32,10.32,0,0,1-14.74,0,10.72,10.72,0,0,1,0-15l32.4-32.92a10.72,10.72,0,0,0,0-15h0a10.31,10.31,0,0,0-14-.67l-7,7.16a10.33,10.33,0,0,1-14.75,0,10.72,10.72,0,0,1,0-15l61-61.92a10.3,10.3,0,0,1,14.74,0,10.7,10.7,0,0,1,0,15l-9.58,9.74a10.72,10.72,0,0,0,.66,14.24h0a10.33,10.33,0,0,0,14.75,0l45.46-46.19a10.72,10.72,0,0,0,0-15h0a10.31,10.31,0,0,0-14-.67L978,641.4a10.33,10.33,0,0,1-14.75,0,10.72,10.72,0,0,1,0-15l61-61.92a10.3,10.3,0,0,1,14.74,0,10.68,10.68,0,0,1,0,15l-9.58,9.74a10.73,10.73,0,0,0,.66,14.24h0a10.33,10.33,0,0,0,14.75,0l12.39-12.6a10.33,10.33,0,0,1,14.75,0,10.72,10.72,0,0,1,0,15l-1.48,1.51a10.71,10.71,0,0,0,.57,14.33h0a10.31,10.31,0,0,0,14.75,0l15.62-15.87a10.32,10.32,0,0,1,14.74,0A10.7,10.7,0,0,1,1116.15,620.78Z"/><path class="cls-6" d="M1049,722.73l35.28-35.84a9,9,0,0,1,12.89,0h0a9.37,9.37,0,0,1,0,13.1l-35.28,35.84a9,9,0,0,1-12.89,0h0A9.37,9.37,0,0,1,1049,722.73Z"/></g><g class="cls-5"><path class="cls-6" d="M1520.34,350,1423,448.9a12.73,12.73,0,0,1-18.19,0,13.21,13.21,0,0,1,0-18.49l21.69-22a13.23,13.23,0,0,0,0-18.49h0a12.72,12.72,0,0,0-17.41-.72L1325,474.61a13.23,13.23,0,0,0,.71,17.69h0a12.73,12.73,0,0,0,18.19,0l23.26-23.63a12.73,12.73,0,0,1,18.19,0,13.21,13.21,0,0,1,0,18.49l-11,11.14a13.2,13.2,0,0,0,0,18.48h0a12.73,12.73,0,0,0,18.19,0l11-11.14a12.73,12.73,0,0,1,18.19,0,13.2,13.2,0,0,1,0,18.48l-75.21,76.41a12.72,12.72,0,0,1-18.2,0,13.22,13.22,0,0,1,0-18.48l7.84-8a13.22,13.22,0,0,0,0-18.48h0a12.72,12.72,0,0,0-18.2,0l-53.32,54.17a13.22,13.22,0,0,0,0,18.48h0a12.74,12.74,0,0,0,18.2,0l4.29-4.36a12.72,12.72,0,0,1,18.2,0,13.22,13.22,0,0,1,0,18.48l-75.22,76.41a12.73,12.73,0,0,1-18.19,0,13.2,13.2,0,0,1,0-18.48l14.5-14.74a13.2,13.2,0,0,0,0-18.48h0a12.71,12.71,0,0,0-18.19,0l-19.29,19.59a12.73,12.73,0,0,1-18.19,0,13.21,13.21,0,0,1,0-18.49l104.4-106.06c-.13.14-.28.25-.42.38a13.2,13.2,0,0,0-.38-18h0a12.69,12.69,0,0,0-17.56-.56l-15.16,15.39a12.71,12.71,0,0,1-18.19,0,13.2,13.2,0,0,1,0-18.48l40-40.62a13.22,13.22,0,0,0,0-18.48h0a12.72,12.72,0,0,0-17.29-.83l-8.7,8.83a12.71,12.71,0,0,1-18.19,0,13.2,13.2,0,0,1,0-18.48l75.21-76.41a12.72,12.72,0,0,1,18.2,0,13.22,13.22,0,0,1,0,18.48l-11.83,12a13.2,13.2,0,0,0,.82,17.56h0a12.71,12.71,0,0,0,18.19,0l56.1-57a13.22,13.22,0,0,0,0-18.48h0a12.72,12.72,0,0,0-17.29-.83l-8.7,8.83a12.71,12.71,0,0,1-18.19,0,13.2,13.2,0,0,1,0-18.48l75.21-76.41a12.72,12.72,0,0,1,18.2,0,13.22,13.22,0,0,1,0,18.48l-11.83,12a13.2,13.2,0,0,0,.82,17.56h0a12.71,12.71,0,0,0,18.19,0L1447.6,313a12.73,12.73,0,0,1,18.19,0,13.21,13.21,0,0,1,0,18.49l-1.82,1.85a13.23,13.23,0,0,0,.71,17.69h0a12.73,12.73,0,0,0,18.19,0l19.28-19.58a12.71,12.71,0,0,1,18.19,0A13.22,13.22,0,0,1,1520.34,350Z"/><path class="cls-6" d="M1437.48,475.78,1481,431.55a11.12,11.12,0,0,1,15.9,0h0a11.54,11.54,0,0,1,0,16.16l-43.53,44.22a11.12,11.12,0,0,1-15.9,0h0A11.55,11.55,0,0,1,1437.48,475.78Z"/></g><path class="cls-7" d="M1165.86,737.28l-81.08,82.37a17.48,17.48,0,0,1-25,0h0a18.16,18.16,0,0,1,0-25.41l81.08-82.37a17.48,17.48,0,0,1,25,0h0A18.16,18.16,0,0,1,1165.86,737.28Z"/><path class="cls-7" d="M1344.42,705.5l-81.08,82.37a17.48,17.48,0,0,1-25,0h0a18.16,18.16,0,0,1,0-25.41l81.08-82.37a17.48,17.48,0,0,1,25,0h0A18.16,18.16,0,0,1,1344.42,705.5Z"/><path class="cls-7" d="M1184.44,606.78,1143.9,648a8.75,8.75,0,0,1-12.5,0h0a9.08,9.08,0,0,1,0-12.71l40.54-41.19a8.75,8.75,0,0,1,12.5,0h0A9.08,9.08,0,0,1,1184.44,606.78Z"/><path class="cls-7" d="M848.59,636.62,767.51,719a17.51,17.51,0,0,1-25,0h0a18.18,18.18,0,0,1,0-25.42l81.08-82.37a17.51,17.51,0,0,1,25,0h0A18.2,18.2,0,0,1,848.59,636.62Z"/><path class="cls-7" d="M860.25,687.53,771.09,778.1a11.85,11.85,0,0,1-16.94,0h0a12.3,12.3,0,0,1,0-17.21l89.15-90.57a11.84,11.84,0,0,1,17,0h0A12.32,12.32,0,0,1,860.25,687.53Z"/></g></g></g></g></svg>