<svg xmlns="http://www.w3.org/2000/svg" xmlns:xlink="http://www.w3.org/1999/xlink" viewBox="0 0 508.16 416.67"><defs><style>.cls-1{fill:#fe9764;}.cls-2,.cls-7{fill:#fff;}.cls-3,.cls-7{opacity:0.3;}.cls-4{fill:#f1f2f2;}.cls-5{fill:#eaeaea;}.cls-6{fill:#e3e3e5;}.cls-8{fill:#d8d8d8;}.cls-10,.cls-9{fill:#bebdc2;}.cls-9{opacity:0.6;}.cls-10{opacity:0.4;}.cls-11,.cls-18,.cls-22,.cls-24,.cls-25,.cls-28{fill:none;}.cls-11{stroke:#b0d5f7;stroke-width:1.89px;}.cls-11,.cls-18,.cls-24,.cls-25{stroke-linecap:round;stroke-linejoin:round;}.cls-12{fill:#fbfbfd;}.cls-13{fill:#2d61bb;}.cls-14{fill:#61abfd;}.cls-15{fill:#daeaff;}.cls-16{fill:#f5dd45;}.cls-17{fill:#447fd3;}.cls-18{stroke:#daeaff;stroke-width:4.46px;}.cls-19{fill:#2f282f;}.cls-20{fill:#1c181c;}.cls-21{fill:#2346ae;}.cls-22{stroke:#545054;stroke-width:0.63px;}.cls-22,.cls-28{stroke-miterlimit:10;}.cls-23{fill:#545054;}.cls-24,.cls-25{stroke:#2d61bb;}.cls-24{stroke-width:2.73px;}.cls-25{stroke-width:4.1px;}.cls-26{fill:#e9f1c2;}.cls-27{clip-path:url(#clip-path);}.cls-28{stroke:#fff;stroke-width:3.58px;}.cls-29{clip-path:url(#clip-path-2);}.cls-30{fill:#06ff7c;}.cls-31{fill:#002f56;}</style><clipPath id="clip-path"><polygon class="cls-1" points="82.77 400.8 92.24 375.14 96.19 375.14 106.06 400.8 82.77 400.8"/></clipPath><clipPath id="clip-path-2"><polygon class="cls-1" points="124.33 400.8 133.8 375.14 137.75 375.14 147.61 400.8 124.33 400.8"/></clipPath></defs><title>standalone</title><g id="Layer_2" data-name="Layer 2"><g id="OBJECTS"><polygon class="cls-2" points="290.26 6.9 289.14 6.02 287.77 6.45 288.26 5.11 287.43 3.95 288.86 4 289.7 2.85 290.1 4.22 291.45 4.67 290.27 5.47 290.26 6.9"/><polygon class="cls-2" points="364.41 38.81 363.28 37.94 361.92 38.37 362.41 37.02 361.58 35.86 363 35.91 363.85 34.76 364.25 36.13 365.6 36.58 364.42 37.38 364.41 38.81"/><polygon class="cls-2" points="409.91 17.27 408.78 16.39 407.42 16.82 407.91 15.48 407.07 14.32 408.5 14.37 409.35 13.21 409.75 14.59 411.1 15.04 409.92 15.84 409.91 17.27"/><polygon class="cls-2" points="331.92 186.69 330.73 185.77 329.3 186.22 329.81 184.81 328.94 183.59 330.44 183.64 331.33 182.43 331.75 183.87 333.17 184.34 331.93 185.19 331.92 186.69"/><polygon class="cls-2" points="149.53 75.01 147.82 73.69 145.77 74.34 146.5 72.32 145.25 70.57 147.4 70.64 148.68 68.9 149.28 70.97 151.32 71.65 149.54 72.86 149.53 75.01"/><polygon class="cls-2" points="392.68 211.86 391.61 211.03 390.32 211.44 390.78 210.17 389.99 209.07 391.34 209.11 392.14 208.02 392.52 209.32 393.8 209.75 392.69 210.51 392.68 211.86"/><polygon class="cls-2" points="146.53 209.52 144.65 208.06 142.39 208.78 143.19 206.55 141.81 204.62 144.18 204.7 145.59 202.78 146.25 205.06 148.51 205.81 146.54 207.15 146.53 209.52"/><polygon class="cls-2" points="370.73 167.2 369.66 166.37 368.37 166.78 368.83 165.51 368.04 164.41 369.39 164.46 370.19 163.37 370.57 164.67 371.85 165.09 370.73 165.85 370.73 167.2"/><polygon class="cls-2" points="369.54 122.61 367.48 121.01 365 121.8 365.88 119.35 364.37 117.23 366.97 117.31 368.52 115.22 369.24 117.72 371.71 118.54 369.56 120 369.54 122.61"/><polygon class="cls-2" points="347.85 62.48 345.79 60.88 343.31 61.67 344.19 59.22 342.67 57.1 345.28 57.18 346.82 55.08 347.55 57.59 350.02 58.41 347.87 59.87 347.85 62.48"/><polygon class="cls-2" points="130.61 126.31 128.56 124.71 126.07 125.5 126.95 123.05 125.44 120.93 128.04 121.01 129.59 118.91 130.31 121.42 132.79 122.24 130.63 123.7 130.61 126.31"/><polygon class="cls-2" points="118.09 156.32 116.91 155.41 115.5 155.85 116 154.45 115.13 153.24 116.62 153.29 117.5 152.09 117.92 153.52 119.33 153.99 118.1 154.83 118.09 156.32"/><g class="cls-3"><polygon class="cls-2" points="425.16 4.05 424.03 3.18 422.67 3.61 423.15 2.27 422.32 1.1 423.75 1.15 424.59 0 424.99 1.37 426.35 1.82 425.17 2.62 425.16 4.05"/><polygon class="cls-2" points="445.81 63 444.68 62.13 443.32 62.56 443.8 61.21 442.97 60.05 444.4 60.1 445.25 58.95 445.64 60.32 447 60.77 445.82 61.57 445.81 63"/><polygon class="cls-2" points="491.31 41.46 490.18 40.58 488.82 41.02 489.3 39.67 488.47 38.51 489.9 38.56 490.74 37.41 491.14 38.78 492.5 39.23 491.31 40.03 491.31 41.46"/><polygon class="cls-2" points="413.31 210.88 412.13 209.96 410.7 210.41 411.21 209 410.33 207.78 411.83 207.83 412.72 206.62 413.14 208.06 414.57 208.53 413.32 209.38 413.31 210.88"/><polygon class="cls-2" points="18.69 50.15 16.99 48.83 14.93 49.48 15.66 47.45 14.41 45.7 16.56 45.77 17.84 44.03 18.44 46.1 20.48 46.78 18.7 47.99 18.69 50.15"/><polygon class="cls-2" points="474.07 236.05 473 235.22 471.72 235.63 472.17 234.36 471.39 233.26 472.74 233.3 473.54 232.21 473.92 233.51 475.2 233.94 474.08 234.7 474.07 236.05"/><polygon class="cls-2" points="44.38 197.06 42.5 195.61 40.24 196.32 41.04 194.09 39.66 192.16 42.03 192.24 43.44 190.33 44.1 192.61 46.35 193.35 44.39 194.69 44.38 197.06"/><polygon class="cls-2" points="452.12 191.39 451.05 190.56 449.76 190.97 450.22 189.7 449.44 188.6 450.79 188.65 451.59 187.56 451.96 188.86 453.25 189.28 452.13 190.04 452.12 191.39"/><polygon class="cls-2" points="450.94 146.8 448.88 145.2 446.39 145.99 447.28 143.54 445.76 141.42 448.37 141.5 449.91 139.41 450.64 141.91 453.11 142.73 450.95 144.19 450.94 146.8"/><polygon class="cls-2" points="497.16 177.34 495.55 176.08 493.61 176.7 494.3 174.78 493.11 173.13 495.15 173.19 496.36 171.55 496.93 173.51 498.86 174.15 497.18 175.3 497.16 177.34"/><polygon class="cls-2" points="487.65 100.46 485.59 98.86 483.11 99.65 483.99 97.2 482.47 95.08 485.08 95.17 486.62 93.07 487.35 95.57 489.82 96.39 487.66 97.86 487.65 100.46"/><polygon class="cls-2" points="45.6 131.85 43.55 130.25 41.06 131.04 41.95 128.59 40.43 126.47 43.03 126.56 44.58 124.46 45.3 126.96 47.78 127.78 45.62 129.25 45.6 131.85"/><polygon class="cls-2" points="2.96 180.51 1.78 179.59 0.36 180.05 0.87 178.64 0 177.43 1.49 177.48 2.37 176.28 2.79 177.71 4.2 178.18 2.97 179.02 2.96 180.51"/></g><polygon class="cls-2" points="313.07 236.72 314.34 237.37 315.6 236.69 315.37 238.1 316.4 239.08 314.99 239.31 314.38 240.59 313.73 239.32 312.31 239.13 313.32 238.12 313.07 236.72"/><polygon class="cls-2" points="85.08 202.92 86.35 203.57 87.61 202.89 87.38 204.3 88.42 205.29 87.01 205.51 86.39 206.8 85.74 205.53 84.33 205.34 85.34 204.33 85.08 202.92"/><polygon class="cls-2" points="115.42 225.81 116.69 226.46 117.95 225.78 117.72 227.19 118.76 228.17 117.35 228.39 116.73 229.68 116.08 228.41 114.67 228.22 115.68 227.21 115.42 225.81"/><polygon class="cls-2" points="101.58 9.61 102.92 10.29 104.24 9.58 104 11.06 105.09 12.1 103.61 12.33 102.96 13.69 102.28 12.35 100.79 12.15 101.85 11.09 101.58 9.61"/><polygon class="cls-2" points="401.68 118.18 403.6 119.16 405.49 118.14 405.15 120.26 406.71 121.75 404.59 122.08 403.66 124.03 402.68 122.11 400.55 121.82 402.07 120.3 401.68 118.18"/><polygon class="cls-2" points="118.95 39.7 120.16 40.31 121.34 39.67 121.13 41.01 122.11 41.94 120.78 42.15 120.19 43.37 119.58 42.16 118.24 41.98 119.2 41.03 118.95 39.7"/><polygon class="cls-2" points="175.63 11.68 177.47 12.62 179.3 11.63 178.97 13.68 180.47 15.11 178.42 15.43 177.53 17.3 176.59 15.45 174.53 15.18 176 13.71 175.63 11.68"/><polygon class="cls-2" points="88.73 88.61 90.33 89.42 91.9 88.57 91.62 90.34 92.92 91.57 91.15 91.85 90.38 93.47 89.56 91.87 87.79 91.63 89.06 90.37 88.73 88.61"/><polygon class="cls-2" points="43.05 73.97 44.64 74.79 46.22 73.94 45.94 75.7 47.23 76.94 45.47 77.22 44.69 78.83 43.88 77.24 42.1 77 43.37 75.73 43.05 73.97"/><polygon class="cls-2" points="19.41 4.41 20.88 5.16 22.32 4.37 22.07 6 23.26 7.13 21.63 7.39 20.92 8.88 20.17 7.41 18.54 7.19 19.71 6.03 19.41 4.41"/><polygon class="cls-2" points="394.45 60.01 396.78 61.19 399.07 59.95 398.66 62.52 400.55 64.32 397.97 64.73 396.85 67.08 395.67 64.75 393.08 64.41 394.93 62.57 394.45 60.01"/><polygon class="cls-2" points="320.29 27.58 321.62 28.25 322.93 27.55 322.69 29.02 323.77 30.04 322.3 30.27 321.66 31.62 320.98 30.29 319.51 30.09 320.56 29.04 320.29 27.58"/><path class="cls-4" d="M350.44,176.22a45,45,0,1,1,37.16-51.58A45,45,0,0,1,350.44,176.22Z"/><path class="cls-5" d="M360.84,113.23a14.82,14.82,0,1,1-17-12.26A14.82,14.82,0,0,1,360.84,113.23Z"/><path class="cls-6" d="M359.5,109a15.06,15.06,0,0,1,.74,2.79,14.82,14.82,0,0,1-27.92,9,14.82,14.82,0,0,0,28.52-7.54A14.64,14.64,0,0,0,359.5,109Z"/><path class="cls-7" d="M347.25,89.59c-.85-.11-1.71-.21-2.58-.27a41.11,41.11,0,0,0-35,66.82,46.15,46.15,0,0,1,37.58-66.55Z"/><path class="cls-8" d="M376.78,147.75c1.68,2.05.14,6.47-3.42,9.87s-7.81,4.51-9.49,2.46-.14-6.47,3.42-9.87S375.11,145.7,376.78,147.75Z"/><path class="cls-9" d="M376.78,147.75a2.33,2.33,0,0,0-.42-.41c.95,2.24-.61,6.13-3.82,9.2s-7.18,4.33-9.07,2.87a2.64,2.64,0,0,0,.4.67c1.68,2,5.92.95,9.49-2.46S378.46,149.8,376.78,147.75Z"/><path class="cls-8" d="M377.93,126.92c-.81,3.74-4.07,6.2-7.29,5.5s-5.17-4.29-4.36-8,4.08-6.21,7.3-5.51S378.74,123.18,377.93,126.92Z"/><path class="cls-9" d="M378.11,124.87a7.83,7.83,0,0,1-.18,1.34c-.81,3.74-4.07,6.2-7.29,5.51a6.16,6.16,0,0,1-4.53-6c-.15,3.22,1.7,6.08,4.53,6.69,3.22.7,6.48-1.76,7.29-5.5A8,8,0,0,0,378.11,124.87Z"/><path class="cls-5" d="M323.44,157c-2.31,2.22-7.75.33-12.16-4.22s-6.11-10.07-3.81-12.29,7.75-.34,12.16,4.22S325.74,154.76,323.44,157Z"/><path class="cls-6" d="M323.44,157a3.45,3.45,0,0,0,.45-.56c-2.6,1.29-7.41-.65-11.39-4.76s-5.84-9.24-4.26-11.73a3.15,3.15,0,0,0-.77.54c-2.3,2.22-.59,7.73,3.81,12.29S321.13,159.21,323.44,157Z"/><path class="cls-5" d="M309.1,125.79c-2.72-1.2-3-6.54-.64-11.93s6.49-8.79,9.22-7.6,3,6.54.64,11.93S311.83,127,309.1,125.79Z"/><path class="cls-6" d="M309.1,125.79a2.94,2.94,0,0,0,.64.19c-2-1.78-2.05-6.6.09-11.46s5.88-8.27,8.58-7.79a2.94,2.94,0,0,0-.73-.47c-2.73-1.19-6.85,2.21-9.22,7.6S306.38,124.59,309.1,125.79Z"/><path class="cls-8" d="M342.65,170.33c-3.77.65-7.28-1.46-7.84-4.7s2.05-6.4,5.82-7,7.28,1.45,7.84,4.69S346.43,169.68,342.65,170.33Z"/><path class="cls-9" d="M344.62,169.72a7.86,7.86,0,0,1-1.31.34c-3.77.65-7.28-1.45-7.84-4.7a6.16,6.16,0,0,1,3.86-6.45c-3.05,1.08-5,3.86-4.52,6.72.56,3.24,4.07,5.35,7.84,4.7A7.93,7.93,0,0,0,344.62,169.72Z"/><path class="cls-10" d="M366.89,93.66a44.93,44.93,0,0,1-61.28,62.81,44.95,44.95,0,1,0,61.28-62.81Z"/><polygon class="cls-2" points="414.51 285.16 415.78 285.81 417.04 285.13 416.81 286.54 417.85 287.52 416.43 287.75 415.82 289.03 415.17 287.76 413.75 287.57 414.76 286.56 414.51 285.16"/><polygon class="cls-2" points="186.52 251.36 187.79 252.01 189.05 251.33 188.82 252.74 189.86 253.73 188.45 253.95 187.83 255.24 187.18 253.97 185.77 253.78 186.78 252.77 186.52 251.36"/><polygon class="cls-2" points="216.86 274.25 218.13 274.89 219.39 274.22 219.16 275.63 220.2 276.61 218.79 276.83 218.17 278.12 217.52 276.85 216.11 276.66 217.12 275.65 216.86 274.25"/><polygon class="cls-2" points="203.02 58.05 204.36 58.73 205.68 58.02 205.44 59.5 206.53 60.54 205.05 60.77 204.4 62.13 203.72 60.78 202.23 60.59 203.29 59.52 203.02 58.05"/><polygon class="cls-2" points="503.12 166.62 505.04 167.6 506.93 166.58 506.6 168.7 508.16 170.19 506.03 170.52 505.1 172.47 504.12 170.54 501.99 170.26 503.51 168.74 503.12 166.62"/><polygon class="cls-2" points="220.39 88.14 221.6 88.75 222.79 88.11 222.57 89.44 223.55 90.38 222.22 90.59 221.63 91.81 221.02 90.6 219.68 90.42 220.64 89.47 220.39 88.14"/><polygon class="cls-2" points="277.06 60.11 278.91 61.06 280.74 60.07 280.41 62.12 281.91 63.55 279.86 63.87 278.97 65.74 278.03 63.89 275.97 63.62 277.44 62.15 277.06 60.11"/><polygon class="cls-2" points="190.17 137.04 191.77 137.86 193.34 137.01 193.06 138.78 194.36 140.01 192.59 140.29 191.82 141.91 191.01 140.31 189.23 140.07 190.5 138.81 190.17 137.04"/><polygon class="cls-2" points="144.49 122.41 146.08 123.23 147.66 122.38 147.38 124.14 148.68 125.38 146.91 125.66 146.13 127.27 145.32 125.68 143.54 125.44 144.81 124.17 144.49 122.41"/><polygon class="cls-2" points="120.85 52.84 122.32 53.59 123.77 52.81 123.51 54.44 124.7 55.57 123.07 55.83 122.36 57.32 121.61 55.85 119.98 55.63 121.15 54.47 120.85 52.84"/><polygon class="cls-2" points="495.89 108.45 498.22 109.63 500.51 108.39 500.1 110.96 501.99 112.76 499.41 113.17 498.29 115.52 497.11 113.19 494.52 112.85 496.37 111.01 495.89 108.45"/><polygon class="cls-2" points="421.73 76.02 423.06 76.69 424.37 75.98 424.13 77.46 425.21 78.48 423.74 78.72 423.1 80.06 422.42 78.73 420.95 78.53 422 77.48 421.73 76.02"/><line class="cls-11" x1="89.3" y1="363.41" x2="425.55" y2="363.41"/><rect class="cls-12" x="103.67" y="178.09" width="296.02" height="184.37"/><rect class="cls-13" x="103.67" y="178.09" width="75.31" height="184.37"/><path class="cls-14" d="M110.68,160.29h282a7,7,0,0,1,7,7v10.79a0,0,0,0,1,0,0h-296a0,0,0,0,1,0,0V167.3A7,7,0,0,1,110.68,160.29Z"/><path class="cls-15" d="M127.16,169.19a3.59,3.59,0,1,1-3.59-3.59A3.6,3.6,0,0,1,127.16,169.19Z"/><path class="cls-16" d="M137.81,169.19a3.6,3.6,0,1,1-3.59-3.59A3.6,3.6,0,0,1,137.81,169.19Z"/><path class="cls-15" d="M148.46,169.19a3.6,3.6,0,1,1-3.59-3.59A3.6,3.6,0,0,1,148.46,169.19Z"/><circle class="cls-14" cx="141.33" cy="222" r="23.47" transform="translate(-107 309.12) rotate(-76.85)"/><path class="cls-13" d="M147.68,216a6.27,6.27,0,1,1-6.27-6.26A6.27,6.27,0,0,1,147.68,216Z"/><path class="cls-13" d="M127.67,232.53l2.25-4.19a7.41,7.41,0,0,1,6.52-3.9h9.12a7.41,7.41,0,0,1,6.14,3.26l3.25,4.83Z"/><rect class="cls-15" x="315.31" y="198.53" width="71.36" height="70.27"/><rect class="cls-15" x="315.31" y="281.74" width="71.36" height="62.65"/><rect class="cls-17" x="353.08" y="198.53" width="13.36" height="21.06"/><circle class="cls-15" cx="203.14" cy="215.36" r="12.88" transform="translate(-72.15 106.44) rotate(-25.09)"/><line class="cls-18" x1="225.67" y1="206.05" x2="273.98" y2="206.05"/><line class="cls-18" x1="225.67" y1="215.87" x2="249.82" y2="215.87"/><line class="cls-18" x1="225.67" y1="225.69" x2="273.98" y2="225.69"/><circle class="cls-15" cx="203.14" cy="266.16" r="12.88" transform="translate(-93.49 421.45) rotate(-80.28)"/><line class="cls-18" x1="225.67" y1="256.84" x2="273.98" y2="256.84"/><line class="cls-18" x1="225.67" y1="266.66" x2="249.82" y2="266.66"/><line class="cls-18" x1="225.67" y1="276.48" x2="273.98" y2="276.48"/><circle class="cls-15" cx="203.14" cy="316.95" r="12.88"/><line class="cls-18" x1="225.67" y1="307.64" x2="273.98" y2="307.64"/><line class="cls-18" x1="225.67" y1="317.46" x2="249.82" y2="317.46"/><line class="cls-18" x1="225.67" y1="327.28" x2="273.98" y2="327.28"/><path class="cls-14" d="M164.79,322.24H117.86a2.23,2.23,0,1,1,0-4.46h46.93a2.23,2.23,0,1,1,0,4.46Z"/><path class="cls-14" d="M164.79,333.63H117.86a2.23,2.23,0,1,1,0-4.46h46.93a2.23,2.23,0,1,1,0,4.46Z"/><path class="cls-2" d="M72.21,138.61s3.25-13.79,22.3-11.35c0,0,4.77-14.92,23.92-13.38,19.59,1.57,20.68,15.81,20.68,15.81s10.95-4.87,18.25-.41,9.32,9.33,9.32,9.33Z"/><path class="cls-2" d="M240.61,115.57s1-4.84,6.59-4c0,0,1.44-5.55,7.07-4.69s6.12,5.54,6.12,5.54,3.23-1.71,5.39-.14a7.71,7.71,0,0,1,2.76,3.27Z"/><path class="cls-2" d="M366.54,140.23s1.87-9.45,12.89-7.78c0,0,2.81-10.84,13.83-9.17s11.95,10.83,11.95,10.83,6.33-3.33,10.55-.27a15.05,15.05,0,0,1,5.39,6.39Z"/><rect class="cls-13" x="386.11" y="280.77" width="2.11" height="118.22" transform="translate(-58.6 81.6) rotate(-11.19)"/><rect class="cls-13" x="354.44" y="280.77" width="2.11" height="118.22" transform="translate(-59.21 75.46) rotate(-11.19)"/><rect class="cls-13" x="364.51" y="385.88" width="31.67" height="2.1"/><rect class="cls-13" x="362.24" y="374.02" width="31.67" height="2.1"/><rect class="cls-13" x="359.62" y="362.16" width="31.67" height="2.1"/><rect class="cls-13" x="358.03" y="350.3" width="31.67" height="2.1"/><rect class="cls-13" x="354.84" y="338.43" width="31.67" height="2.1"/><rect class="cls-13" x="352.45" y="326.57" width="31.67" height="2.1"/><rect class="cls-13" x="350.64" y="314.71" width="31.67" height="2.1"/><rect class="cls-13" x="348.59" y="302.85" width="31.67" height="2.1"/><rect class="cls-13" x="346.2" y="290.98" width="31.67" height="2.1"/><path class="cls-12" d="M360.2,237l-.05-7.32c0-.63-.73-1.16-1.58-1.15l-7.76.05a2.91,2.91,0,0,1-3.13-2.63l0-2.5a2.92,2.92,0,0,1,3.1-2.68l4.6,0v1.22l-4.6,0c-1,0-1.89.66-1.88,1.46v2.5a1.73,1.73,0,0,0,1.92,1.43l7.75-.06a2.61,2.61,0,0,1,2.8,2.36l.06,7.32Z"/><path class="cls-13" d="M365.68,224.76l-11.59.08a3.29,3.29,0,0,1-3.32-3.26h0a3.29,3.29,0,0,1,3.27-3.31l11.59-.09a3.29,3.29,0,0,1,3.31,3.26h0A3.3,3.3,0,0,1,365.68,224.76Z"/><path class="cls-19" d="M361.92,251.13h-2.21a1.18,1.18,0,0,1-1.19-1.17l.36-13.52a1.17,1.17,0,0,1,1.17-1.18h1.29a1.18,1.18,0,0,1,1.19,1.17l.56,13.51A1.18,1.18,0,0,1,361.92,251.13Z"/><path class="cls-1" d="M365.61,242.15a4.19,4.19,0,1,1-5.73-1.55A4.19,4.19,0,0,1,365.61,242.15Z"/><rect class="cls-1" x="310.38" y="253.02" width="7.87" height="10.57"/><rect class="cls-1" x="303.79" y="398.06" width="5.25" height="5.29" transform="translate(612.83 801.41) rotate(180)"/><rect class="cls-20" x="300.5" y="395.89" width="10.96" height="4.02" transform="translate(611.96 795.79) rotate(180)"/><rect class="cls-1" x="320.33" y="398.06" width="5.25" height="5.29"/><polygon class="cls-19" points="315.43 303.81 313.94 303.81 299.55 303.81 302.17 395.89 310.46 395.89 311.75 319.91 317.62 319.91 318.91 395.89 327.2 395.89 329.82 303.81 315.43 303.81"/><rect class="cls-20" x="317.91" y="395.89" width="10.96" height="4.02"/><circle class="cls-1" cx="303.86" cy="246.66" r="2.62"/><circle class="cls-1" cx="324.89" cy="246.66" r="2.62"/><circle class="cls-19" cx="314.37" cy="244.4" r="10.76"/><path class="cls-13" d="M329.82,303.81H299.55l-1.17-33.4c0-5.6,3.71-10.14,9.31-10.14h14c5.6,0,9.31,4.54,9.31,10.14Z"/><path class="cls-13" d="M307.24,271.1l-18.56,21.65.85-1.61a2.17,2.17,0,0,0-.06-1.35,1.81,1.81,0,0,0-.57-.77,1,1,0,0,0-.89-.17l.71-.16,15.58-2.18a4.58,4.58,0,0,1,1.27,9.07L290,297.76l.71-.16a8.17,8.17,0,0,1-7.16-1.15,7.54,7.54,0,0,1-2.59-3.3,7.07,7.07,0,0,1-.21-4.58,5,5,0,0,1,.8-1.55l0-.06,18.33-23c1.79-2.31,4.23-2.27,6.55-.47a5.29,5.29,0,0,1,1,7.43A1.73,1.73,0,0,1,307.24,271.1Z"/><path class="cls-21" d="M345.41,268.84a0,0,0,0,1,0,0,.56.56,0,0,0,0,.13s0,0,0,0v-.17Z"/><path class="cls-21" d="M347,267.66h0Z"/><path class="cls-13" d="M350,276.4a8.26,8.26,0,0,0,3.13-2,8.58,8.58,0,0,0,1.14-1.48c.16-.27.29-.55.43-.82l.09-.19,0-.1.07-.18,1.25-2.91,2.5-5.83c1.43-3.25,3.93-8.81,5.75-12.78a1.29,1.29,0,0,0-.69-1.73l-6.36-2.54a1.28,1.28,0,0,0-1.66.68c-1.72,4-4.16,9.42-5.57,12.61l-2.61,5.78-2.69,5.74c.55,3.53,3.46,2.56,4.28,6.06A8.57,8.57,0,0,0,350,276.4Zm-1.94-8.92,0,0,0,0Z"/><path class="cls-13" d="M347.75,267.91l-2.36-.7-1-.28-6.09-1.78c-4-1.18-12.91-4.1-13-4.13-3.18-.72-5.82,1.83-6.19,5.16a5.63,5.63,0,0,0,4.45,6c4.06.92,8.12,1.85,12.16,2.83l6.16,1.49,1.54.38.77.19.51.12a9.3,9.3,0,0,0,.92.16,8.39,8.39,0,0,0,6.18-1.76C349.59,272.74,349.74,270.87,347.75,267.91ZM345.4,269a.56.56,0,0,1,0-.13,0,0,0,0,0,0,0V269S345.4,269,345.4,269Z"/><polygon class="cls-22" points="318.14 308.32 326.32 308.32 326.32 313.72 322.23 316.65 318.14 313.82 318.14 308.32"/><polygon class="cls-22" points="303.05 308.32 311.23 308.32 311.23 313.72 307.14 316.65 303.05 313.82 303.05 308.32"/><path class="cls-2" d="M327.25,401.64l.13,5.63s13.56,3.84,13.74,3.84,2.1.63,2.1,1.88c0,0-24.64.09-24.56,0s-.19-5.87-.19-5.87S317.79,400.47,327.25,401.64Z"/><path class="cls-2" d="M329.32,410.43a.63.63,0,0,0,.62-.57v-2.21a.63.63,0,0,0-1.25-.11v2.2a.63.63,0,0,0,.57.68Z"/><path class="cls-2" d="M331.9,411a.63.63,0,0,0,.62-.57V408.2a.63.63,0,1,0-1.25-.11v2.2a.62.62,0,0,0,.57.68Z"/><path class="cls-2" d="M334.44,411.69a.64.64,0,0,0,.63-.57v-2.21a.62.62,0,0,0-.56-.68.66.66,0,0,0-.69.57V411a.62.62,0,0,0,.57.68Z"/><path class="cls-19" d="M318.66,413l1,1a2.68,2.68,0,0,0,1.88.79h19a2.68,2.68,0,0,0,2.05-1l.66-.81Z"/><path class="cls-2" d="M301.71,401.64l-.13,5.63s-13.56,3.84-13.73,3.84-2.11.63-2.11,1.88c0,0,24.65.09,24.56,0s.19-5.87.19-5.87S311.17,400.47,301.71,401.64Z"/><path class="cls-2" d="M299.64,410.43a.63.63,0,0,1-.62-.57v-2.21a.63.63,0,0,1,1.25-.11v2.2a.62.62,0,0,1-.57.68Z"/><path class="cls-2" d="M297.07,411a.63.63,0,0,1-.63-.57V408.2a.63.63,0,0,1,.57-.68.63.63,0,0,1,.68.57v2.2a.62.62,0,0,1-.57.68Z"/><path class="cls-2" d="M294.52,411.69a.63.63,0,0,1-.62-.57v-2.21a.63.63,0,0,1,.57-.68.64.64,0,0,1,.68.57V411a.63.63,0,0,1-.57.68Z"/><path class="cls-19" d="M310.3,413l-1,1a2.66,2.66,0,0,1-1.88.79h-19a2.64,2.64,0,0,1-2-1l-.67-.81Z"/><path class="cls-2" d="M250.76,386.16H274.4a1.33,1.33,0,0,1,1.33,1.33V413.3a1.6,1.6,0,0,1-1.6,1.6H251a1.6,1.6,0,0,1-1.6-1.6V387.49A1.33,1.33,0,0,1,250.76,386.16Z"/><path class="cls-13" d="M250.76,386.16H274.4a1.33,1.33,0,0,1,1.33,1.33v2.34a0,0,0,0,1,0,0h-26.3a0,0,0,0,1,0,0v-2.34A1.33,1.33,0,0,1,250.76,386.16Z"/><path class="cls-23" d="M268.55,401.54H256.21a4.17,4.17,0,0,1-3.9-2.63l-2.84-8.42a.52.52,0,0,1,1-.32l2.82,8.39a3.16,3.16,0,0,0,2.94,2h12.34a3.17,3.17,0,0,0,2.89-1.87l3.27-8.5a.52.52,0,0,1,.67-.3.51.51,0,0,1,.29.66L272.38,399A4.2,4.2,0,0,1,268.55,401.54Z"/><line class="cls-24" x1="264.38" y1="387.99" x2="264.38" y2="395.63"/><line class="cls-25" x1="266.9" y1="389.36" x2="266.9" y2="390.59"/><line class="cls-11" x1="238.85" y1="415.73" x2="358.45" y2="415.73"/><polygon class="cls-26" points="82.77 400.8 92.24 375.14 96.19 375.14 106.06 400.8 82.77 400.8"/><rect class="cls-1" x="78.77" y="400.8" width="30.58" height="4.25"/><polygon class="cls-1" points="82.77 400.8 92.24 375.14 96.19 375.14 106.06 400.8 82.77 400.8"/><g class="cls-27"><line class="cls-28" x1="82.77" y1="387.97" x2="107.09" y2="381.74"/><line class="cls-28" x1="81.58" y1="398.03" x2="105.9" y2="391.8"/></g><polygon class="cls-26" points="124.33 400.8 133.8 375.14 137.75 375.14 147.61 400.8 124.33 400.8"/><rect class="cls-1" x="120.33" y="400.8" width="30.58" height="4.25"/><polygon class="cls-1" points="124.33 400.8 133.8 375.14 137.75 375.14 147.61 400.8 124.33 400.8"/><g class="cls-29"><line class="cls-28" x1="124.33" y1="387.97" x2="148.65" y2="381.74"/><line class="cls-28" x1="123.13" y1="398.03" x2="147.46" y2="391.8"/></g><line class="cls-11" x1="74.08" y1="405.78" x2="164.77" y2="405.78"/><path class="cls-30" d="M471.1,302.15h0a5.49,5.49,0,0,0,.89-6.5h0a2.43,2.43,0,0,0-.16-.28h0a10.69,10.69,0,0,1,2-12.44c1.78-2.36.43-5.5.43-5.5h0a7.6,7.6,0,1,1,14.31,0h0s-1.35,3.14.44,5.5a10.73,10.73,0,0,1,2,12.44h0l0,.05-.18.36a5.46,5.46,0,0,0,.7,6.08l.2.23.05.06h0a13.22,13.22,0,1,1-20.62,0Z"/><path class="cls-31" d="M477.53,309.29l3.23,3.2V301.23l-4-3.93a.53.53,0,0,1,0-.75.54.54,0,0,1,.75,0l3.23,3.2V284.22a.52.52,0,0,1,.53-.52.52.52,0,0,1,.52.52v9.36l3.15-3.13a.54.54,0,0,1,.75,0,.53.53,0,0,1,0,.75l-3.89,3.86v11.31l3.49-3.51a.52.52,0,1,1,.74.73l-4.23,4.28v30a.52.52,0,0,1-.52.53.53.53,0,0,1-.53-.53V314l-4-3.94a.52.52,0,1,1,.74-.74Z"/><line class="cls-11" x1="473.27" y1="338.16" x2="484.88" y2="338.16"/><path class="cls-30" d="M417.46,289.82h0a9.21,9.21,0,0,0,1.49-10.93h0c-.15-.29-.26-.47-.26-.47h0a18,18,0,0,1,3.33-20.9c3-4,.73-9.25.73-9.25h0a12.76,12.76,0,1,1,24,0h0s-2.27,5.28.73,9.25a18,18,0,0,1,3.33,20.9h0l-.05.09c-.1.2-.2.4-.31.6a9.18,9.18,0,0,0,1.18,10.22l.33.38.09.11h0a22.22,22.22,0,1,1-34.65,0Z"/><path class="cls-31" d="M428.25,301.8l5.44,5.39V288.27L427,281.66a.88.88,0,1,1,1.24-1.25l5.44,5.38V259.7a.89.89,0,1,1,1.77,0v15.72l5.29-5.26a.88.88,0,0,1,1.24,1.25l-6.53,6.5v19L441.3,291a.88.88,0,0,1,1.26,1.24l-7.1,7.17v50.4a.89.89,0,0,1-1.77,0V309.67L427,303.06a.88.88,0,1,1,1.24-1.26Z"/><line class="cls-11" x1="421.11" y1="350.31" x2="440.61" y2="350.31"/><path class="cls-30" d="M45,287.64h0A11.52,11.52,0,0,0,46.8,274h0a6.51,6.51,0,0,0-.33-.58h.05a22.53,22.53,0,0,1,4.17-26.14c3.75-5,.91-11.58.91-11.58h0a15.78,15.78,0,0,1-.92-5.3,16,16,0,1,1,31.91,0,15.78,15.78,0,0,1-.92,5.3h0s-2.84,6.61.91,11.58a22.51,22.51,0,0,1,4.17,26.13h0l-.07.11c-.13.25-.26.5-.4.74A11.51,11.51,0,0,0,87.81,287c.13.16.27.31.4.48s.07.09.12.13h0a27.79,27.79,0,1,1-43.33,0Z"/><path class="cls-31" d="M58.48,302.63l6.8,6.73V285.7l-8.36-8.26a1.11,1.11,0,0,1,1.56-1.57l6.8,6.73V250a1.11,1.11,0,1,1,2.21,0v19.66l6.62-6.58a1.1,1.1,0,0,1,1.55,1.57l-8.17,8.12V296.5l7.31-7.38a1.1,1.1,0,1,1,1.57,1.55l-8.88,9v63a1.11,1.11,0,0,1-2.21,0V312.46l-8.36-8.26a1.11,1.11,0,0,1,1.56-1.57Z"/><line class="cls-11" x1="49.55" y1="363.3" x2="73.94" y2="363.3"/></g></g></svg>